<svg xmlns="http://www.w3.org/2000/svg" xmlns:xlink="http://www.w3.org/1999/xlink" version="1.1" x="0px" y="0px" viewBox="0 0 100 125" style="enable-background:new 0 0 100 100;" xml:space="preserve"><g><g><path d="M86,65.1H14c-4.1,0-7.4-3.3-7.4-7.4V7.4C6.5,3.3,9.9,0,14,0H86c4.1,0,7.4,3.3,7.4,7.4v50.3    C93.5,61.8,90.1,65.1,86,65.1z M14,2.3c-2.9,0-5.2,2.3-5.2,5.2v50.3c0,2.9,2.3,5.2,5.2,5.2H86c2.9,0,5.2-2.3,5.2-5.2V7.4    c0-2.9-2.3-5.2-5.2-5.2H14z"/></g><g><path d="M75.5,74.9H24.5c-0.4,0-0.7-0.2-0.9-0.5c-0.2-0.3-0.3-0.7-0.1-1l3.8-9.7c0.2-0.6,0.9-0.9,1.5-0.6    c0.6,0.2,0.9,0.9,0.6,1.5l-3.2,8.2h47.6l-3.2-8.2c-0.2-0.6,0.1-1.2,0.6-1.5c0.6-0.2,1.2,0.1,1.5,0.6l3.8,9.7    c0.1,0.3,0.1,0.7-0.1,1C76.2,74.7,75.8,74.9,75.5,74.9z"/></g><g><g><path d="M90.4,100H9.6c-1.5,0-2.8-0.8-3.6-2c-0.7-1.3-0.8-2.8-0.1-4.1l7.4-13.3c0.2-0.4,0.6-0.6,1-0.6h71.2     c0.4,0,0.8,0.2,1,0.6L94,93.9c0.7,1.3,0.7,2.8-0.1,4.1C93.2,99.2,91.8,100,90.4,100z M15.1,82.2L8,95c-0.3,0.6-0.3,1.3,0,1.9     c0.3,0.6,0.9,0.9,1.6,0.9h80.7c0.7,0,1.3-0.3,1.6-0.9c0.3-0.6,0.3-1.3,0-1.9l-7-12.7H15.1z"/></g><g><g><path d="M18.1,91.1c-0.3,0-0.6-0.1-0.8-0.3c-0.2-0.2-0.3-0.5-0.3-0.8c0-0.3,0.1-0.6,0.3-0.8      c0.4-0.4,1.2-0.4,1.6,0c0.2,0.2,0.3,0.5,0.3,0.8c0,0.3-0.1,0.6-0.3,0.8C18.6,91,18.4,91.1,18.1,91.1z"/></g><g><path d="M73.7,90c0-0.6,0.5-1.1,1.1-1.1l0,0c0.6,0,1.1,0.5,1.1,1.1l0,0c0,0.6-0.5,1.1-1.1,1.1l0,0      C74.2,91.1,73.7,90.6,73.7,90z M66.6,90c0-0.6,0.5-1.1,1.1-1.1l0,0c0.6,0,1.1,0.5,1.1,1.1l0,0c0,0.6-0.5,1.1-1.1,1.1l0,0      C67.1,91.1,66.6,90.6,66.6,90z M59.5,90c0-0.6,0.5-1.1,1.1-1.1l0,0c0.6,0,1.1,0.5,1.1,1.1l0,0c0,0.6-0.5,1.1-1.1,1.1l0,0      C60,91.1,59.5,90.6,59.5,90z M52.4,90c0-0.6,0.5-1.1,1.1-1.1l0,0c0.6,0,1.1,0.5,1.1,1.1l0,0c0,0.6-0.5,1.1-1.1,1.1l0,0      C52.9,91.1,52.4,90.6,52.4,90z M45.3,90c0-0.6,0.5-1.1,1.1-1.1l0,0c0.6,0,1.1,0.5,1.1,1.1l0,0c0,0.6-0.5,1.1-1.1,1.1l0,0      C45.8,91.1,45.3,90.6,45.3,90z M38.2,90c0-0.6,0.5-1.1,1.1-1.1l0,0c0.6,0,1.1,0.5,1.1,1.1l0,0c0,0.6-0.5,1.1-1.1,1.1l0,0      C38.7,91.1,38.2,90.6,38.2,90z M31.1,90c0-0.6,0.5-1.1,1.1-1.1l0,0c0.6,0,1.1,0.5,1.1,1.1l0,0c0,0.6-0.5,1.1-1.1,1.1l0,0      C31.6,91.1,31.1,90.6,31.1,90z M24,90c0-0.6,0.5-1.1,1.1-1.1l0,0c0.6,0,1.1,0.5,1.1,1.1l0,0c0,0.6-0.5,1.1-1.1,1.1l0,0      C24.5,91.1,24,90.6,24,90z"/></g><g><path d="M81.9,91.1c-0.3,0-0.6-0.1-0.8-0.3c-0.2-0.2-0.3-0.5-0.3-0.8c0-0.3,0.1-0.6,0.3-0.8      c0.4-0.4,1.2-0.4,1.6,0c0.2,0.2,0.3,0.5,0.3,0.8c0,0.3-0.1,0.6-0.3,0.8C82.5,91,82.2,91.1,81.9,91.1z"/></g></g></g><g><g><g><g><path d="M62.8,48.3c-0.6,0-1.1-0.5-1.1-1.1v-5.9l-5-4.3c-0.5-0.4-0.5-1.1-0.1-1.6c0.4-0.5,1.1-0.5,1.6-0.1       l5.4,4.7c0.2,0.2,0.4,0.5,0.4,0.9v6.5C64,47.8,63.4,48.3,62.8,48.3z"/></g><g><path d="M37.4,48.3c-0.6,0-1.1-0.5-1.1-1.1v-6.5c0-0.3,0.1-0.6,0.4-0.8l5.4-4.8c0.5-0.4,1.2-0.4,1.6,0.1       c0.4,0.5,0.4,1.2-0.1,1.6l-5.1,4.5v6C38.5,47.8,38,48.3,37.4,48.3z"/></g></g><g><path d="M50.2,37c-4.8,0-8.6-4.5-8.6-10.1s3.9-10.1,8.6-10.1c4.8,0,8.6,4.5,8.6,10.1S54.9,37,50.2,37z       M50.2,19c-3.5,0-6.4,3.5-6.4,7.8c0,4.3,2.9,7.8,6.4,7.8c3.5,0,6.4-3.5,6.4-7.8C56.6,22.6,53.7,19,50.2,19z"/></g></g><g><path d="M50.1,57c-13.5,0-24.4-11-24.4-24.4s11-24.4,24.4-24.4s24.4,11,24.4,24.4S63.6,57,50.1,57z M50.1,10.4     c-12.2,0-22.2,10-22.2,22.2c0,12.2,10,22.2,22.2,22.2c12.2,0,22.2-10,22.2-22.2C72.3,20.3,62.3,10.4,50.1,10.4z"/></g></g></g><text x="0" y="115" fill="#000000" font-size="5px" font-weight="bold" font-family="'Helvetica Neue', Helvetica, Arial-Unicode, Arial, Sans-serif">Created by N.Style</text><text x="0" y="120" fill="#000000" font-size="5px" font-weight="bold" font-family="'Helvetica Neue', Helvetica, Arial-Unicode, Arial, Sans-serif">from the Noun Project</text></svg>