<?xml version="1.0" encoding="UTF-8"?>
<svg width="1200pt" height="1200pt" version="1.1" viewBox="0 0 1200 1200" xmlns="http://www.w3.org/2000/svg">
 <path d="m786.61 413.29c9.375 9.375 24.609 9.375 33.938 0 4.5469-4.5469 6.9375-10.547 6.9375-16.922s-2.5312-12.375-6.9375-16.922c-57.938-57.938-138.47-91.219-220.78-91.219-3.2344 0-6.6094 0-9.8438 0.14062-87.141 2.7656-166.92 40.453-224.53 105.94-101.53 115.45-102.94 290.63-3.375 407.53 59.531 69.844 146.29 109.92 237.94 109.92 83.391 0 161.76-32.391 220.69-91.219 33.375-33.375 58.219-72.609 73.688-116.39 10.547-30 6.2344-62.062-12.141-87.938-18.141-25.547-46.453-40.219-77.766-40.219h-190.31c-13.453 0-24.844 9.4688-25.922 21.609-0.60938 6.8438 1.5469 13.453 6.1406 18.609 4.5469 5.0625 11.062 7.9219 17.766 7.9219h193.45c15.234 0 29.156 7.0781 38.062 19.547 8.7656 12.375 11.156 28.312 6.1406 42.703-13.078 37.922-34.219 71.766-62.859 100.45-49.781 49.781-116.06 77.156-186.71 77.156-70.688 0-136.92-27.469-186.71-77.156-102.94-102.94-102.94-270.47 0-373.31 102.94-102.84 270.47-102.94 373.31 0z"/>
</svg>
