<svg xmlns="http://www.w3.org/2000/svg" xmlns:xlink="http://www.w3.org/1999/xlink" version="1.1" x="0px" y="0px" viewBox="0 0 64 80" style="enable-background:new 0 0 64 64;" xml:space="preserve"><g><path d="M18.3,41.2v3c0,2.5-2.1,4.6-4.6,4.6h-1.1v3.3c6.8-2,13.1-1,18.4,2.4V32.4C25.7,29,19.4,28,12.6,29.9v6.6h1.1   C16.3,36.6,18.3,38.6,18.3,41.2z"/><path d="M33,54.5c5.3-3.4,11.6-4.4,18.4-2.4v-3.3h-1.1c-2.6,0-4.6-2.1-4.6-4.6v-3c0-2.6,2.1-4.6,4.6-4.6h1.1v-6.6   c-6.8-2-13.1-1-18.4,2.4V54.5z"/><circle cx="32" cy="18" r="8.5"/><path d="M11.3,46.8h2.4c1.4,0,2.6-1.2,2.6-2.6v-3c0-1.4-1.2-2.6-2.6-2.6h-2.4c-0.8,0-1.5,0.7-1.5,1.5v5.2   C9.8,46.1,10.5,46.8,11.3,46.8z"/><path d="M47.6,41.2v3c0,1.4,1.2,2.6,2.6,2.6h2.4c0.8,0,1.5-0.7,1.5-1.5v-5.2c0-0.8-0.7-1.5-1.5-1.5h-2.4   C48.8,38.6,47.6,39.7,47.6,41.2z"/></g><text x="0" y="79" fill="#000000" font-size="5px" font-weight="bold" font-family="'Helvetica Neue', Helvetica, Arial-Unicode, Arial, Sans-serif">Created by Andre Buand</text><text x="0" y="84" fill="#000000" font-size="5px" font-weight="bold" font-family="'Helvetica Neue', Helvetica, Arial-Unicode, Arial, Sans-serif">from the Noun Project</text></svg>