<svg xmlns="http://www.w3.org/2000/svg" version="1.1" viewBox="-5.0 -10.0 110.0 135.0">
 <path d="m80.398 12.598h-60.797c-5.293 0-9.6016 4.3086-9.6016 9.6016v41.77c0 5.293 4.3086 9.6016 9.6016 9.6016h17.09v3.7188h-8.6211c-2.7891 0-5.0586 2.2695-5.0586 5.0586v3.4609c0 0.88281 0.71484 1.6016 1.6016 1.6016h50.781c0.88281 0 1.6016-0.71484 1.6016-1.6016v-3.4609c0-2.7891-2.2695-5.0586-5.0586-5.0586h-8.6211v-3.7188h17.09c5.293 0 9.6016-4.3047 9.6016-9.6016l-0.007812-41.773c0-5.293-4.3086-9.6016-9.6016-9.6016zm-6.6094 69.746v1.8594h-47.582v-1.8594c0-1.0234 0.83594-1.8594 1.8594-1.8594h43.863c1.0234 0 1.8594 0.83594 1.8594 1.8594zm-13.68-5.0586h-20.223v-3.7188h20.223zm26.688-13.32c0 3.5273-2.8711 6.3984-6.3984 6.3984h-60.797c-3.5273 0-6.3984-2.8711-6.3984-6.3984l-0.003906-41.77c0-3.5273 2.8711-6.3984 6.3984-6.3984h60.801c3.5273 0 6.3984 2.8711 6.3984 6.3984zm-6.3984-44.328h-60.797c-1.4102 0-2.5586 1.0898-2.5586 2.4258v36.945c0 1.3398 1.1484 2.4258 2.5586 2.4258h60.801c1.3945 0 2.5273-1.0898 2.5273-2.4258v-36.945c0-1.3398-1.1328-2.4258-2.5273-2.4258zm-0.67188 38.598h-59.488v-35.398h59.488zm-24.695 7.6641c0 0.88281-0.71484 1.6016-1.6016 1.6016h-6.8633c-0.88281 0-1.6016-0.71484-1.6016-1.6016 0-0.88281 0.71484-1.6016 1.6016-1.6016h6.8633c0.88281 0 1.6016 0.71484 1.6016 1.6016zm-19.078-8.3242c0.88281 0 1.6016-0.71484 1.6016-1.6016v-3.8594c0-3.3164 4.5703-6.1211 9.9766-6.1211h4.9102c5.4062 0 9.9766 2.8008 9.9766 6.1211v3.8594c0 0.88281 0.71484 1.6016 1.6016 1.6016 0.88281 0 1.6016-0.71484 1.6016-1.6016v-3.8594c0-2.6055-1.4609-5.0156-4.1133-6.7812-2.2656-1.5117-5.1836-2.3906-8.2852-2.5195 3.043-1.2695 5.1875-4.2773 5.1875-7.7734 0-4.6445-3.7773-8.4219-8.4219-8.4219s-8.4219 3.7773-8.4219 8.4219c0 3.4961 2.1445 6.5039 5.1875 7.7734-3.1055 0.12891-6.0234 1.0078-8.2852 2.5195-2.6523 1.7695-4.1133 4.1758-4.1133 6.7812v3.8594c0 0.88281 0.71484 1.6016 1.6016 1.6016zm8.8125-22.535c0-2.8789 2.3438-5.2188 5.2188-5.2188 2.8789 0 5.2188 2.3398 5.2188 5.2188 0 2.8789-2.3398 5.2188-5.2188 5.2188s-5.2188-2.3398-5.2188-5.2188z"/>
<text x="0.0" y="117.5" font-size="5.0" font-weight="bold" font-family="Arbeit Regular, Helvetica, Arial-Unicode, Arial, Sans-serif" fill="#000000">Created by Syaiful Khotam</text><text x="0.0" y="122.5" font-size="5.0" font-weight="bold" font-family="Arbeit Regular, Helvetica, Arial-Unicode, Arial, Sans-serif" fill="#000000">from Noun Project</text></svg>