<svg xmlns="http://www.w3.org/2000/svg" version="1.1" viewBox="-5.0 -10.0 110.0 135.0">
 <path d="m90.898 26.922-2.2305-3.8711c-0.089844-0.14844-0.19141-0.28906-0.30859-0.42188v-8.7812l0.21875-0.078125c0.87891-0.33984 1.4414-1.1211 1.4414-2 0-0.87891-0.57031-1.6602-1.4492-2l-25.332-9.5977c-0.57812-0.21875-1.25-0.21875-1.8281 0l-25.262 9.6875c-0.87891 0.33984-1.4414 1.1211-1.4414 2s0.57031 1.6602 1.4492 2l6.5195 2.4805v3.7383h-14c-0.87109 0-1.6992 0.32812-2.3203 0.92188l-16.477 15.52c-0.46875 0.44922-0.80078 1.0312-0.94922 1.6484-0.011719 0.019531-0.011719 0.039062-0.019532 0.070312-0.050781 0.23828-0.078125 0.48828-0.078125 0.73047v44.039c0 1.8594 1.5195 3.3789 3.3789 3.3789h48.711c1.8594 0 3.3789-1.5195 3.3789-3.3789v-47.836c1.9883-0.87109 6.2305-2.8203 15.648-7.1992 1.2695-0.58984 2.0898-1.8789 2.0898-3.2812v-8.4102l3.4102-1.3086v7.6484c-0.12109 0.12109-0.23047 0.26172-0.30859 0.41016l-2.2383 3.8789c-0.35938 0.62109-0.35938 1.3984 0 2.0312 0.35938 0.62891 1.0391 1.0195 1.7617 1.0195h4.4805c0.73047 0 1.3984-0.39063 1.7617-1.0195 0.35547-0.62109 0.35547-1.3906-0.007812-2.0195zm-28.57-23.992 23.32 8.8594-23.27 8.9297-17.648-6.7109c-0.03125-0.011718-0.070313-0.03125-0.10156-0.039062l-5.5586-2.1211zm-36.168 22.242v11.422c0 0.26172-0.21094 0.46875-0.48047 0.46875l-12.141-0.003906zm34.762 58.316h-48.711c-0.26172 0-0.46875-0.21094-0.46875-0.46875l-0.003907-43.059h13.949c1.8594 0 3.3789-1.5195 3.3789-3.3789l0.003906-13.602h13.609v1.7188c0 1.3984 0.82031 2.6914 2.0898 3.2812 11.371 5.2812 15.199 7.0312 16.621 7.6094v47.422c0 0.25781-0.21094 0.47656-0.46875 0.47656zm18.207-58.797c0 0.28125-0.16016 0.53125-0.41016 0.64844-8.4805 3.9414-14.621 6.7617-16.352 7.5117-0.011719 0-0.011719 0-0.019532 0.011719-1.7188-0.75-7.8594-3.5703-16.359-7.5195-0.25-0.12109-0.41016-0.37109-0.41016-0.64844v-3.1484-0.019531-0.019532-4.0703l15.891 6.0391c0.28906 0.10938 0.60156 0.16016 0.91016 0.16016s0.62891-0.058594 0.92188-0.17188l15.828-6.0703zm7.043 2.3672 0.73047-1.2617 0.73047 1.2617z"/>
 <path d="m71.859 90.441v-48.793c0-0.80078-0.64844-1.4492-1.4492-1.4492-0.80078 0-1.4492 0.64844-1.4492 1.4492v48.789c0 0.26172-0.21094 0.46875-0.46875 0.46875l-48.711 0.003906c-0.80078 0-1.4492 0.64844-1.4492 1.4492s0.64844 1.4492 1.4492 1.4492h48.711c1.8594 0.011718 3.3672-1.5078 3.3672-3.3672z"/>
 <path d="m76.941 46.379c-0.80078 0-1.4492 0.64844-1.4492 1.4492v48.789c0 0.26172-0.21094 0.46875-0.46875 0.46875l-48.715 0.003906c-0.80078 0-1.4492 0.64844-1.4492 1.4492 0 0.80078 0.64844 1.4492 1.4492 1.4492h48.711c1.8594 0 3.3789-1.5195 3.3789-3.3789v-48.781c-0.007813-0.79688-0.66016-1.4492-1.457-1.4492z"/>
 <path d="m50.891 46.379h-28.66c-0.80078 0-1.4492 0.64844-1.4492 1.4492s0.64844 1.4492 1.4492 1.4492h28.66c0.80078 0 1.4492-0.64844 1.4492-1.4492 0.011718-0.79688-0.64062-1.4492-1.4492-1.4492z"/>
 <path d="m50.891 56.461h-28.66c-0.80078 0-1.4492 0.64844-1.4492 1.4492 0 0.80078 0.64844 1.4492 1.4492 1.4492h28.66c0.80078 0 1.4492-0.64844 1.4492-1.4492 0-0.80078-0.64062-1.4492-1.4492-1.4492z"/>
 <path d="m50.891 66.551h-28.66c-0.80078 0-1.4492 0.64844-1.4492 1.4492s0.64844 1.4492 1.4492 1.4492h28.66c0.80078 0 1.4492-0.64844 1.4492-1.4492s-0.64062-1.4492-1.4492-1.4492z"/>
<text x="0.0" y="117.5" font-size="5.0" font-weight="bold" font-family="Arbeit Regular, Helvetica, Arial-Unicode, Arial, Sans-serif" fill="#000000">Created by zum rotul</text><text x="0.0" y="122.5" font-size="5.0" font-weight="bold" font-family="Arbeit Regular, Helvetica, Arial-Unicode, Arial, Sans-serif" fill="#000000">from Noun Project</text></svg>