<svg xmlns="http://www.w3.org/2000/svg" version="1.1" viewBox="-5.0 -10.0 110.0 135.0">
 <path d="m61.379 93.5c0.82812 0 1.5 0.67188 1.5 1.5s-0.67188 1.5-1.5 1.5h-47.547c-2.8398 0-5.4258-1.1641-7.2969-3.0391-1.8711-1.8711-3.0312-4.457-3.0312-7.293v-72.332c0-2.8438 1.1641-5.4297 3.0312-7.2969l0.089844-0.082031c1.8672-1.8242 4.418-2.9531 7.2109-2.9531h4.2188c0.82812 0 1.5 0.67188 1.5 1.5s-0.67188 1.5-1.5 1.5h-4.2188c-1.9805 0-3.7891 0.79688-5.1406 2.1172-1.3633 1.3672-2.1914 3.1992-2.1914 5.2148v72.332c0 2.0195 0.82422 3.8555 2.1562 5.1836 1.3242 1.3242 3.1602 2.1484 5.1758 2.1484h47.547zm-10.145-52.488 18.965-23.062c0.26953-0.39062 0.72266-0.64844 1.2344-0.64844h8.4492c0.33594 0.007813 0.67188 0.11719 0.94922 0.34766 0.63672 0.52344 0.73047 1.4688 0.20312 2.1055l-24.113 29.32 22.066 31.258c0.47656 0.67578 0.3125 1.6094-0.36328 2.0859-0.26172 0.18359-0.5625 0.27344-0.85938 0.27344l-11.484 0.003906c-0.53906 0-1.0117-0.28516-1.2773-0.71094l-16.23-22.996-18.965 23.059c-0.26953 0.39062-0.72266 0.64844-1.2344 0.64844h-8.4492c-0.33594-0.007812-0.67188-0.11719-0.94922-0.34766-0.63672-0.52344-0.73047-1.4688-0.20312-2.1055l24.113-29.316-22.066-31.262c-0.47656-0.67578-0.3125-1.6094 0.36328-2.0859 0.26172-0.18359 0.5625-0.27344 0.85938-0.27344h11.484c0.53906 0 1.0117 0.28516 1.2773 0.71094l16.234 23zm-12.609-34.512c-0.82812 0-1.5-0.67188-1.5-1.5s0.67188-1.5 1.5-1.5h47.543c2.8438 0 5.4297 1.1641 7.3008 3.0312l0.082031 0.089844c1.8242 1.8672 2.9531 4.418 2.9531 7.2109v72.332c0 2.8359-1.1641 5.4219-3.0391 7.3008-1.875 1.875-4.4609 3.0352-7.2969 3.0352h-4.2148c-0.82812 0-1.5-0.67188-1.5-1.5s0.67188-1.5 1.5-1.5h4.2148c2.0195 0 3.8555-0.82422 5.1797-2.1484 1.332-1.3281 2.1562-3.1641 2.1562-5.1836v-72.332c0-1.9844-0.79688-3.7891-2.1172-5.1406-1.3672-1.3633-3.1992-2.1914-5.2148-2.1914h-47.543z"/>
<text x="0.0" y="117.5" font-size="5.0" font-weight="bold" font-family="Arbeit Regular, Helvetica, Arial-Unicode, Arial, Sans-serif" fill="#000000">Created by Suharsono</text><text x="0.0" y="122.5" font-size="5.0" font-weight="bold" font-family="Arbeit Regular, Helvetica, Arial-Unicode, Arial, Sans-serif" fill="#000000">from Noun Project</text></svg>